ffmpeg version 3.4.8-0ubuntu0.2 Copyright (c) 2000-2020 the FFmpeg developers
  built with gcc 7 (Ubuntu 7.5.0-3ubuntu1~18.04)
  configuration: --prefix=/usr --extra-version=0ubuntu0.2 --toolchain=hardened --libdir=/usr/lib/x86_64-linux-gnu --incdir=/usr/include/x86_64-linux-gnu --enable-gpl --disable-stripping --enable-avresample --enable-avisynth --enable-gnutls --enable-ladspa --enable-libass --enable-libbluray --enable-libbs2b --enable-libcaca --enable-libcdio --enable-libflite --enable-libfontconfig --enable-libfreetype --enable-libfribidi --enable-libgme --enable-libgsm --enable-libmp3lame --enable-libmysofa --enable-libopenjpeg --enable-libopenmpt --enable-libopus --enable-libpulse --enable-librubberband --enable-librsvg --enable-libshine --enable-libsnappy --enable-libsoxr --enable-libspeex --enable-libssh --enable-libtheora --enable-libtwolame --enable-libvorbis --enable-libvpx --enable-libwavpack --enable-libwebp --enable-libx265 --enable-libxml2 --enable-libxvid --enable-libzmq --enable-libzvbi --enable-omx --enable-openal --enable-opengl --enable-sdl2 --enable-libdc1394 --enable-libdrm --enable-libiec61883 --enable-chromaprint --enable-frei0r --enable-libopencv --enable-libx264 --enable-shared
  libavutil      55. 78.100 / 55. 78.100
  libavcodec     57.107.100 / 57.107.100
  libavformat    57. 83.100 / 57. 83.100
  libavdevice    57. 10.100 / 57. 10.100
  libavfilter     6.107.100 /  6.107.100
  libavresample   3.  7.  0 /  3.  7.  0
  libswscale      4.  8.100 /  4.  8.100
  libswresample   2.  9.100 /  2.  9.100
  libpostproc    54.  7.100 / 54.  7.100
[rawvideo @ 0x55a9546a4a20] Estimating duration from bitrate, this may be inaccurate
Input #0, rawvideo, from '../../SVC-Encoder-20220109T061506Z-001/SVC-Encoder/Dataset/RollerCoaster/ERP_8x8/tile_yuv/Tile_53_480x240.yuv':
  Duration: 00:00:10.00, start: 0.000000, bitrate: 41472 kb/s
    Stream #0:0: Video: rawvideo (I420 / 0x30323449), yuv420p, 480x240, 41472 kb/s, 30 tbr, 30 tbn, 30 tbc
Stream mapping:
  Stream #0:0 -> #0:0 (rawvideo (native) -> h264 (libx264))
Press [q] to stop, [?] for help
[libx264 @ 0x55a9546b1c60] using cpu capabilities: MMX2 SSE2Fast LZCNT SSSE3 SSE4.2 AVX
[libx264 @ 0x55a9546b1c60] profile High, level 2.1
Output #0, rawvideo, to 'RollerCoaster_Tile_53_480x240_x264_QP_40.h264':
  Metadata:
    encoder         : Lavf57.83.100
    Stream #0:0: Video: h264 (libx264), yuv420p, 480x240, q=-1--1, 30 fps, 30 tbn, 30 tbc
    Metadata:
      encoder         : Lavc57.107.100 libx264
    Side data:
      cpb: bitrate max/min/avg: 0/0/0 buffer size: 0 vbv_delay: -1
frame=  300 fps=0.0 q=46.0 LPSNR=Y:inf U:inf V:inf *:inf size=      23kB time=00:00:09.93 bitrate=  19.2kbits/s speed=20.6x    
video:23kB audio:0kB subtitle:0kB other streams:0kB global headers:0kB muxing overhead: 0.000000%
[libx264 @ 0x55a9546b1c60] frame I:2     Avg QP:38.15  size:  2094  PSNR Mean Y:39.11 U:40.42 V:40.10 Avg:39.45 Global:39.37
[libx264 @ 0x55a9546b1c60] frame P:76    Avg QP:38.26  size:   135  PSNR Mean Y:38.91 U:40.55 V:40.53 Avg:39.38 Global:39.36
[libx264 @ 0x55a9546b1c60] frame B:222   Avg QP:45.53  size:    42  PSNR Mean Y:38.18 U:40.43 V:40.43 Avg:38.80 Global:38.78
[libx264 @ 0x55a9546b1c60] consecutive B-frames:  0.7%  1.3%  2.0% 96.0%
[libx264 @ 0x55a9546b1c60] mb I  I16..4: 37.4% 49.3% 13.2%
[libx264 @ 0x55a9546b1c60] mb P  I16..4:  0.1%  0.3%  0.0%  P16..4: 19.0%  0.4%  0.0%  0.0%  0.0%    skip:80.2%
[libx264 @ 0x55a9546b1c60] mb B  I16..4:  0.0%  0.0%  0.0%  B16..8:  6.1%  0.0%  0.0%  direct: 0.0%  skip:93.8%  L0:43.5% L1:56.5% BI: 0.0%
[libx264 @ 0x55a9546b1c60] 8x8 transform intra:53.3% inter:97.8%
[libx264 @ 0x55a9546b1c60] coded y,uvDC,uvAC intra: 14.1% 29.9% 14.7% inter: 0.0% 0.4% 0.0%
[libx264 @ 0x55a9546b1c60] i16 v,h,dc,p: 64% 25%  9%  2%
[libx264 @ 0x55a9546b1c60] i8 v,h,dc,ddl,ddr,vr,hd,vl,hu:  5% 57% 33%  0%  0%  0%  2%  0%  2%
[libx264 @ 0x55a9546b1c60] i4 v,h,dc,ddl,ddr,vr,hd,vl,hu:  4% 62% 14%  0%  1%  0%  8%  0% 10%
[libx264 @ 0x55a9546b1c60] i8c dc,h,v,p: 72% 23%  2%  3%
[libx264 @ 0x55a9546b1c60] Weighted P-Frames: Y:1.3% UV:0.0%
[libx264 @ 0x55a9546b1c60] ref P L0: 58.5% 12.5% 21.6%  7.4%  0.1%
[libx264 @ 0x55a9546b1c60] ref B L0: 55.9% 36.9%  7.2%
[libx264 @ 0x55a9546b1c60] ref B L1: 65.9% 34.1%
[libx264 @ 0x55a9546b1c60] PSNR Mean Y:38.369 U:40.459 V:40.453 Avg:38.951 Global:38.928 kb/s:19.02
